<?xml version="1.0" standalone="no"?>
<!DOCTYPE svg PUBLIC "-//W3C//DTD SVG 20010904//EN"
 "http://www.w3.org/TR/2001/REC-SVG-20010904/DTD/svg10.dtd">
<svg version="1.0" xmlns="http://www.w3.org/2000/svg"
 width="288.000000pt" height="719.000000pt" viewBox="0 0 288.000000 719.000000"
 preserveAspectRatio="xMidYMid meet">

<g transform="translate(0.000000,719.000000) scale(0.100000,-0.100000)"
fill="#000000" stroke="none">
<path d="M1500 6775 c0 -110 4 -175 10 -175 6 0 10 14 10 30 0 17 9 39 20 50
18 18 33 20 150 20 l131 0 -3 -122 -3 -123 -133 0 c-121 0 -135 2 -148 19 -8
11 -14 32 -14 48 0 15 -4 28 -10 28 -6 0 -10 -65 -10 -175 0 -110 4 -175 10
-175 6 0 10 13 10 28 0 61 7 62 327 62 268 0 291 -1 306 -18 10 -10 17 -31 17
-45 0 -15 5 -27 10 -27 6 0 10 65 10 175 0 110 -4 175 -10 175 -5 0 -10 -13
-10 -28 0 -16 -6 -37 -14 -48 -13 -17 -27 -19 -153 -19 l-138 0 -3 123 -3 124
142 -4 c126 -3 142 -5 155 -22 8 -11 14 -32 14 -48 0 -15 5 -28 10 -28 6 0 10
65 10 175 0 110 -4 175 -10 175 -5 0 -10 -10 -10 -23 0 -12 -7 -33 -16 -45
-15 -22 -17 -22 -308 -22 -271 0 -294 1 -309 18 -10 10 -17 31 -17 45 0 15 -4
27 -10 27 -6 0 -10 -65 -10 -175z"/>
<path d="M1205 6200 c-10 -32 -57 -56 -373 -195 -161 -70 -295 -131 -297 -134
-2 -4 130 -66 294 -139 163 -73 312 -142 330 -153 18 -11 38 -33 44 -49 6 -17
15 -30 19 -30 4 0 8 52 8 115 0 114 -12 151 -24 76 -9 -57 -49 -66 -130 -31
l-46 21 0 119 0 120 38 18 c102 52 142 49 142 -9 0 -16 5 -29 10 -29 6 0 10
60 10 160 0 148 -8 193 -25 140z m-215 -399 l0 -100 -47 20 c-27 11 -79 35
-117 52 l-68 32 108 47 c60 26 112 48 117 48 4 0 7 -45 7 -99z"/>
<path d="M1500 5835 l0 -305 98 1 c79 0 92 2 72 11 -14 6 -40 18 -59 26 -47
21 -71 65 -71 130 l0 52 298 0 c277 0 300 -1 315 -18 10 -10 17 -31 17 -45 0
-15 5 -27 10 -27 6 0 10 65 10 175 0 110 -4 175 -10 175 -5 0 -10 -13 -10 -28
0 -16 -6 -37 -14 -48 -14 -18 -29 -19 -313 -19 l-298 0 -3 56 c-3 49 1 61 23
88 15 17 48 38 76 48 27 10 49 21 49 25 0 5 -43 8 -95 8 l-95 0 0 -305z"/>
<path d="M540 5295 c0 -110 4 -175 10 -175 6 0 10 13 10 28 0 61 7 62 327 62
268 0 291 -1 306 -18 10 -10 17 -31 17 -45 0 -15 5 -27 10 -27 6 0 10 65 10
175 0 110 -4 175 -10 175 -5 0 -10 -13 -10 -28 0 -16 -6 -37 -14 -48 -14 -18
-29 -19 -311 -19 -282 0 -297 1 -311 19 -8 11 -14 32 -14 48 0 15 -4 28 -10
28 -6 0 -10 -65 -10 -175z"/>
<path d="M1500 5090 c0 -247 4 -380 10 -380 6 0 10 13 10 29 0 61 2 61 325 61
323 0 325 0 325 -61 0 -16 5 -29 10 -29 6 0 10 65 10 175 0 110 -4 175 -10
175 -5 0 -10 -13 -10 -29 0 -66 -42 -74 -390 -69 l-235 3 -3 123 -3 122 299 0
c277 0 300 -1 315 -18 10 -10 17 -31 17 -45 0 -15 5 -27 10 -27 6 0 10 65 10
175 0 110 -4 175 -10 175 -5 0 -10 -13 -10 -28 0 -16 -6 -37 -14 -48 -14 -18
-29 -19 -311 -19 -282 0 -297 1 -311 19 -8 11 -14 32 -14 48 0 15 -4 28 -10
28 -6 0 -10 -133 -10 -380z"/>
<path d="M1020 5039 c0 -4 25 -19 55 -34 58 -28 95 -68 114 -124 15 -45 14
-164 -1 -179 -8 -8 -56 -12 -150 -12 l-138 0 0 31 c0 44 54 96 109 105 92 15
43 24 -124 24 -115 0 -174 -3 -170 -10 3 -5 16 -10 27 -10 36 0 104 -39 116
-66 7 -14 12 -36 12 -49 l0 -25 -145 0 -145 0 0 79 c0 44 5 92 11 108 16 44
57 80 105 93 24 7 44 17 44 21 0 5 -45 9 -100 9 l-100 0 0 -285 c0 -183 4
-285 10 -285 6 0 10 13 10 28 0 16 6 37 14 48 14 18 29 19 311 19 282 0 297
-1 311 -19 8 -11 14 -32 14 -48 0 -15 5 -28 10 -28 6 0 10 104 10 293 l0 294
-105 15 c-58 8 -105 11 -105 7z"/>
<path d="M1500 4495 c0 -110 4 -175 10 -175 6 0 10 13 10 28 0 54 22 62 168
62 l132 0 0 -120 0 -120 -133 0 c-147 0 -167 7 -167 63 0 15 -4 27 -10 27 -6
0 -10 -65 -10 -175 0 -110 4 -175 10 -175 6 0 10 13 10 28 0 16 6 37 14 48 14
18 29 19 311 19 282 0 297 -1 311 -19 8 -11 14 -32 14 -48 0 -15 5 -28 10 -28
6 0 10 65 10 175 0 110 -4 175 -10 175 -5 0 -10 -13 -10 -28 0 -54 -22 -62
-173 -62 l-137 0 0 120 0 120 138 0 c153 0 172 -7 172 -63 0 -15 5 -27 10 -27
6 0 10 65 10 175 0 110 -4 175 -10 175 -5 0 -10 -13 -10 -28 0 -16 -6 -37 -14
-48 -14 -18 -29 -19 -311 -19 -282 0 -297 1 -311 19 -8 11 -14 32 -14 48 0 15
-4 28 -10 28 -6 0 -10 -65 -10 -175z"/>
<path d="M1210 4386 c0 -24 -52 -67 -210 -170 -85 -56 -160 -105 -167 -109
-12 -8 -245 180 -262 212 -6 11 -11 29 -11 40 0 12 -4 21 -10 21 -6 0 -10 -48
-10 -125 0 -77 4 -125 10 -125 6 0 10 11 10 25 0 15 9 31 24 40 22 15 27 15
58 -1 33 -17 141 -101 145 -113 2 -3 -40 -34 -93 -68 -78 -51 -100 -61 -115
-52 -11 5 -19 20 -19 34 0 14 -4 25 -10 25 -6 0 -10 -62 -10 -165 0 -91 3
-165 8 -165 4 0 14 13 23 29 14 23 300 229 345 248 12 4 154 -107 232 -181 24
-23 48 -57 54 -78 6 -21 15 -38 20 -38 4 0 8 59 8 130 0 80 -4 130 -10 130 -5
0 -10 -11 -10 -24 0 -13 -8 -34 -19 -47 -17 -21 -21 -22 -47 -10 -32 14 -183
132 -183 143 -2 14 194 138 217 138 17 0 24 -7 29 -30 14 -71 23 -18 23 135 0
103 -4 165 -10 165 -5 0 -10 -6 -10 -14z"/>
<path d="M2160 3848 c-14 -29 -41 -43 -342 -173 -180 -77 -326 -144 -325 -149
2 -4 133 -67 291 -138 314 -141 361 -166 378 -203 21 -46 28 -25 28 85 0 67
-4 110 -10 110 -5 0 -10 -10 -10 -23 0 -34 -28 -67 -55 -67 -31 0 -406 163
-397 172 4 4 99 46 211 94 220 93 233 95 239 35 2 -17 7 -31 13 -31 5 0 9 67
9 160 0 88 -3 160 -7 160 -5 0 -15 -15 -23 -32z"/>
<path d="M540 3465 c0 -110 4 -175 10 -175 6 0 10 13 10 28 0 61 7 62 327 62
268 0 291 -1 306 -18 10 -10 17 -31 17 -45 0 -15 5 -27 10 -27 6 0 10 65 10
175 0 110 -4 175 -10 175 -5 0 -10 -13 -10 -28 0 -16 -6 -37 -14 -48 -14 -18
-29 -19 -311 -19 -282 0 -297 1 -311 19 -8 11 -14 32 -14 48 0 15 -4 28 -10
28 -6 0 -10 -65 -10 -175z"/>
<path d="M759 3207 c-58 -22 -105 -55 -148 -103 -57 -65 -76 -128 -76 -249 0
-89 3 -106 28 -156 34 -69 100 -132 174 -166 70 -32 189 -36 268 -10 164 55
258 226 227 409 -15 84 -40 136 -93 189 -66 66 -137 93 -249 96 -61 2 -108 -2
-131 -10z m265 -172 c126 -27 186 -82 186 -172 0 -123 -139 -192 -365 -180
-120 6 -196 32 -245 82 -43 44 -52 120 -22 175 49 90 258 135 446 95z"/>
<path d="M2165 3110 c-10 -32 -57 -56 -373 -195 -161 -70 -295 -131 -297 -134
-2 -4 130 -66 294 -139 163 -73 312 -142 330 -153 18 -11 38 -33 44 -49 6 -17
15 -30 19 -30 4 0 8 52 8 115 0 114 -12 151 -24 76 -9 -57 -49 -66 -130 -31
l-46 21 0 119 0 120 38 18 c102 52 142 49 142 -9 0 -16 5 -29 10 -29 6 0 10
60 10 160 0 148 -8 193 -25 140z m-215 -399 l0 -100 -47 20 c-27 11 -79 35
-117 52 l-68 32 108 47 c60 26 112 48 117 48 4 0 7 -45 7 -99z"/>
<path d="M1615 2510 c-30 -12 -72 -60 -91 -105 -15 -33 -19 -78 -22 -247 -3
-147 -1 -208 7 -208 6 0 11 14 11 30 0 17 9 39 20 50 19 19 33 20 305 20 272
0 286 -1 305 -20 11 -11 20 -33 20 -50 0 -16 5 -30 10 -30 6 0 10 65 10 175 0
110 -4 175 -10 175 -5 0 -10 -13 -10 -29 0 -59 -46 -75 -205 -69 l-90 3 -11
95 c-14 122 -39 171 -106 206 -29 15 -111 18 -143 4z m161 -169 c45 -20 68
-60 62 -107 l-3 -29 -150 0 -150 0 -3 29 c-7 54 29 105 83 119 46 11 122 6
161 -12z"/>
<path d="M540 2135 l0 -305 95 0 c52 0 95 4 95 8 0 4 -19 13 -42 19 -24 7 -56
25 -73 42 -25 27 -30 41 -33 97 l-4 65 302 -3 c285 -3 302 -4 316 -22 8 -11
14 -32 14 -48 0 -15 5 -28 10 -28 6 0 10 65 10 175 0 110 -4 175 -10 175 -5 0
-10 -13 -10 -28 0 -61 -6 -62 -333 -62 l-297 0 0 50 c0 28 7 64 15 80 15 29
79 70 109 70 8 0 18 5 21 10 4 6 -28 10 -89 10 l-96 0 0 -305z"/>
<path d="M2165 1890 c-10 -32 -57 -56 -373 -195 -161 -70 -295 -131 -297 -134
-2 -4 130 -66 294 -139 163 -73 312 -142 330 -153 18 -11 38 -33 44 -49 6 -17
15 -30 19 -30 4 0 8 52 8 115 0 114 -12 151 -24 76 -9 -57 -49 -66 -130 -31
l-46 21 0 119 0 120 38 18 c102 52 142 49 142 -9 0 -16 5 -29 10 -29 6 0 10
60 10 160 0 148 -8 193 -25 140z m-215 -399 l0 -100 -47 20 c-27 11 -79 35
-117 52 l-68 32 108 47 c60 26 112 48 117 48 4 0 7 -45 7 -99z"/>
<path d="M990 1756 c0 -3 15 -12 33 -19 69 -30 72 -38 75 -254 3 -162 1 -193
-10 -186 -8 4 -68 52 -135 106 -66 53 -124 97 -129 97 -5 0 -61 -36 -124 -80
l-115 -80 -3 115 c-3 148 7 176 80 210 29 14 59 25 66 25 6 0 12 5 12 10 0 6
-40 10 -100 10 l-100 0 0 -285 c0 -157 2 -285 4 -285 3 0 84 56 181 125 98 69
182 122 189 118 6 -4 77 -60 157 -125 80 -65 149 -118 153 -118 3 0 6 135 6
299 l0 299 -37 6 c-71 10 -203 18 -203 12z"/>
<path d="M1500 780 c0 -247 4 -380 10 -380 6 0 10 15 10 34 0 64 9 66 325 66
316 0 325 -2 325 -66 0 -19 5 -34 10 -34 6 0 10 67 10 180 0 106 -4 180 -9
180 -6 0 -11 -17 -13 -37 -5 -61 -15 -63 -340 -63 l-288 0 0 125 0 125 288 0
c325 0 335 -2 340 -63 2 -20 7 -37 13 -37 5 0 9 72 9 175 0 110 -4 175 -10
175 -5 0 -10 -13 -10 -29 0 -58 -14 -61 -325 -61 -311 0 -325 3 -325 61 0 16
-4 29 -10 29 -6 0 -10 -133 -10 -380z"/>
</g>
</svg>
